<mxfile modified="2023-08-19T17:39:47.044Z" host="app.diagrams.net" agent="Mozilla/5.0 (Windows NT 10.0; Win64; x64) AppleWebKit/537.36 (KHTML, like Gecko) Chrome/116.0.0.0 Safari/537.36" etag="td0iZtG6YuH2P9GMo2vM" version="21.6.8" type="github">
  <diagram id="Ht1M8jgEwFfnCIfOTk4-" name="Page-1">
    <mxGraphModel dx="1985" dy="1140" grid="1" gridSize="10" guides="1" tooltips="1" connect="1" arrows="1" fold="1" page="1" pageScale="1" pageWidth="1169" pageHeight="827" math="0" shadow="0">
      <root>
        <mxCell id="0" />
        <mxCell id="1" parent="0" />
        <mxCell id="GsFr_UHoiSiV_E2Ub8C0-6" value="&lt;br&gt;&lt;br&gt;&lt;br&gt;&lt;br&gt;&lt;br&gt;&lt;br&gt;&lt;br&gt;" style="rounded=1;whiteSpace=wrap;html=1;" vertex="1" parent="1">
          <mxGeometry x="290" y="154" width="1550" height="926" as="geometry" />
        </mxCell>
        <mxCell id="7OVz4w7n9kzEPWy-4BBC-5" value="2" style="rounded=1;whiteSpace=wrap;html=1;fillColor=#007CBD;strokeColor=none;fontColor=#FFFFFF;fontStyle=1;fontSize=22;labelBackgroundColor=none;" parent="1" vertex="1">
          <mxGeometry x="1167.5" y="185" width="40" height="38" as="geometry" />
        </mxCell>
        <mxCell id="7OVz4w7n9kzEPWy-4BBC-6" value="3" style="rounded=1;whiteSpace=wrap;html=1;fillColor=#007CBD;strokeColor=none;fontColor=#FFFFFF;fontStyle=1;fontSize=22;labelBackgroundColor=none;" parent="1" vertex="1">
          <mxGeometry x="1167.5" y="305" width="40" height="38" as="geometry" />
        </mxCell>
        <mxCell id="7OVz4w7n9kzEPWy-4BBC-7" value="4" style="rounded=1;whiteSpace=wrap;html=1;fillColor=#007CBD;strokeColor=none;fontColor=#FFFFFF;fontStyle=1;fontSize=22;labelBackgroundColor=none;" parent="1" vertex="1">
          <mxGeometry x="1167.5" y="419" width="40" height="38" as="geometry" />
        </mxCell>
        <mxCell id="7OVz4w7n9kzEPWy-4BBC-8" value="5" style="rounded=1;whiteSpace=wrap;html=1;fillColor=#007CBD;strokeColor=none;fontColor=#FFFFFF;fontStyle=1;fontSize=22;labelBackgroundColor=none;" parent="1" vertex="1">
          <mxGeometry x="1169" y="536" width="40" height="38" as="geometry" />
        </mxCell>
        <mxCell id="7OVz4w7n9kzEPWy-4BBC-9" value="6" style="rounded=1;whiteSpace=wrap;html=1;fillColor=#007CBD;strokeColor=none;fontColor=#FFFFFF;fontStyle=1;fontSize=22;labelBackgroundColor=none;" parent="1" vertex="1">
          <mxGeometry x="1170" y="651" width="40" height="38" as="geometry" />
        </mxCell>
        <mxCell id="7OVz4w7n9kzEPWy-4BBC-10" value="7" style="rounded=1;whiteSpace=wrap;html=1;fillColor=#007CBD;strokeColor=none;fontColor=#FFFFFF;fontStyle=1;fontSize=22;labelBackgroundColor=none;" parent="1" vertex="1">
          <mxGeometry x="1169.5" y="767" width="40" height="38" as="geometry" />
        </mxCell>
        <mxCell id="7OVz4w7n9kzEPWy-4BBC-11" value="8" style="rounded=1;whiteSpace=wrap;html=1;fillColor=#007CBD;strokeColor=none;fontColor=#FFFFFF;fontStyle=1;fontSize=22;labelBackgroundColor=none;" parent="1" vertex="1">
          <mxGeometry x="1170" y="885" width="40" height="38" as="geometry" />
        </mxCell>
        <mxCell id="GsFr_UHoiSiV_E2Ub8C0-1" value="API ALB" style="rounded=0;whiteSpace=wrap;html=1;" vertex="1" parent="1">
          <mxGeometry x="149" y="112" width="1745" height="1048" as="geometry" />
        </mxCell>
        <mxCell id="GsFr_UHoiSiV_E2Ub8C0-3" value="AWS Cloud" style="sketch=0;outlineConnect=0;fontColor=#232F3E;gradientColor=none;strokeColor=#232F3E;fillColor=#ffffff;dashed=0;verticalLabelPosition=bottom;verticalAlign=top;align=center;html=1;fontSize=12;fontStyle=0;aspect=fixed;shape=mxgraph.aws4.resourceIcon;resIcon=mxgraph.aws4.aws_cloud;" vertex="1" parent="1">
          <mxGeometry x="145" y="112" width="60" height="60" as="geometry" />
        </mxCell>
        <mxCell id="GsFr_UHoiSiV_E2Ub8C0-4" value="Amazon Route 53" style="sketch=0;outlineConnect=0;fontColor=#232F3E;gradientColor=none;strokeColor=#ffffff;fillColor=#232F3E;dashed=0;verticalLabelPosition=middle;verticalAlign=bottom;align=center;html=1;whiteSpace=wrap;fontSize=10;fontStyle=1;spacing=3;shape=mxgraph.aws4.productIcon;prIcon=mxgraph.aws4.route_53;" vertex="1" parent="1">
          <mxGeometry x="100" y="596" width="80" height="80" as="geometry" />
        </mxCell>
        <mxCell id="GsFr_UHoiSiV_E2Ub8C0-34" style="edgeStyle=orthogonalEdgeStyle;rounded=0;orthogonalLoop=1;jettySize=auto;html=1;" edge="1" parent="1" source="GsFr_UHoiSiV_E2Ub8C0-5" target="GsFr_UHoiSiV_E2Ub8C0-4">
          <mxGeometry relative="1" as="geometry" />
        </mxCell>
        <mxCell id="GsFr_UHoiSiV_E2Ub8C0-5" value="Route53" style="text;html=1;align=center;verticalAlign=middle;resizable=0;points=[];autosize=1;strokeColor=none;fillColor=none;fontSize=19;" vertex="1" parent="1">
          <mxGeometry x="95" y="675" width="100" height="40" as="geometry" />
        </mxCell>
        <mxCell id="GsFr_UHoiSiV_E2Ub8C0-8" value="&lt;font style=&quot;font-size: 17px;&quot;&gt;Internet&lt;br&gt;gateway&lt;/font&gt;" style="sketch=0;outlineConnect=0;fontColor=#232F3E;gradientColor=none;strokeColor=#232F3E;fillColor=#ffffff;dashed=0;verticalLabelPosition=bottom;verticalAlign=top;align=center;html=1;fontSize=12;fontStyle=0;aspect=fixed;shape=mxgraph.aws4.resourceIcon;resIcon=mxgraph.aws4.internet_gateway;" vertex="1" parent="1">
          <mxGeometry x="950.5" y="120.5" width="97" height="97" as="geometry" />
        </mxCell>
        <mxCell id="GsFr_UHoiSiV_E2Ub8C0-9" value="" style="rounded=1;whiteSpace=wrap;html=1;" vertex="1" parent="1">
          <mxGeometry x="400" y="217.5" width="480" height="892.5" as="geometry" />
        </mxCell>
        <mxCell id="GsFr_UHoiSiV_E2Ub8C0-10" value="" style="rounded=1;whiteSpace=wrap;html=1;" vertex="1" parent="1">
          <mxGeometry x="1080" y="233" width="540" height="887" as="geometry" />
        </mxCell>
        <mxCell id="GsFr_UHoiSiV_E2Ub8C0-12" value="&lt;font style=&quot;font-size: 21px;&quot;&gt;Public subnet&lt;/font&gt;" style="points=[[0,0],[0.25,0],[0.5,0],[0.75,0],[1,0],[1,0.25],[1,0.5],[1,0.75],[1,1],[0.75,1],[0.5,1],[0.25,1],[0,1],[0,0.75],[0,0.5],[0,0.25]];outlineConnect=0;gradientColor=none;html=1;whiteSpace=wrap;fontSize=12;fontStyle=0;container=1;pointerEvents=0;collapsible=0;recursiveResize=0;shape=mxgraph.aws4.group;grIcon=mxgraph.aws4.group_security_group;grStroke=0;strokeColor=#248814;fillColor=#E9F3E6;verticalAlign=top;align=left;spacingLeft=30;fontColor=#248814;dashed=0;" vertex="1" parent="1">
          <mxGeometry x="470" y="260" width="1040" height="180" as="geometry" />
        </mxCell>
        <mxCell id="GsFr_UHoiSiV_E2Ub8C0-20" value="" style="sketch=0;outlineConnect=0;fontColor=#232F3E;gradientColor=none;fillColor=#4D27AA;strokeColor=none;dashed=0;verticalLabelPosition=bottom;verticalAlign=top;align=center;html=1;fontSize=12;fontStyle=0;aspect=fixed;pointerEvents=1;shape=mxgraph.aws4.nat_gateway;" vertex="1" parent="GsFr_UHoiSiV_E2Ub8C0-12">
          <mxGeometry x="722" y="30" width="78" height="78" as="geometry" />
        </mxCell>
        <object label="" id="GsFr_UHoiSiV_E2Ub8C0-21">
          <mxCell style="sketch=0;outlineConnect=0;fontColor=#232F3E;gradientColor=none;fillColor=#4D27AA;strokeColor=none;dashed=0;verticalLabelPosition=bottom;verticalAlign=top;align=center;html=1;fontSize=12;fontStyle=0;aspect=fixed;pointerEvents=1;shape=mxgraph.aws4.application_load_balancer;" vertex="1" parent="GsFr_UHoiSiV_E2Ub8C0-12">
            <mxGeometry x="481" y="30" width="78" height="78" as="geometry" />
          </mxCell>
        </object>
        <mxCell id="GsFr_UHoiSiV_E2Ub8C0-49" value="NAT gateway" style="text;html=1;align=center;verticalAlign=middle;resizable=0;points=[];autosize=1;strokeColor=none;fillColor=none;fontSize=24;" vertex="1" parent="GsFr_UHoiSiV_E2Ub8C0-12">
          <mxGeometry x="669" y="120" width="170" height="40" as="geometry" />
        </mxCell>
        <mxCell id="GsFr_UHoiSiV_E2Ub8C0-13" value="&lt;font style=&quot;font-size: 23px;&quot;&gt;Private subnet&lt;/font&gt;" style="points=[[0,0],[0.25,0],[0.5,0],[0.75,0],[1,0],[1,0.25],[1,0.5],[1,0.75],[1,1],[0.75,1],[0.5,1],[0.25,1],[0,1],[0,0.75],[0,0.5],[0,0.25]];outlineConnect=0;gradientColor=none;html=1;whiteSpace=wrap;fontSize=12;fontStyle=0;container=1;pointerEvents=0;collapsible=0;recursiveResize=0;shape=mxgraph.aws4.group;grIcon=mxgraph.aws4.group_security_group;grStroke=0;strokeColor=#147EBA;fillColor=#E6F2F8;verticalAlign=top;align=left;spacingLeft=30;fontColor=#147EBA;dashed=0;" vertex="1" parent="1">
          <mxGeometry x="470" y="480" width="1080" height="320" as="geometry" />
        </mxCell>
        <mxCell id="GsFr_UHoiSiV_E2Ub8C0-29" value="" style="outlineConnect=0;dashed=0;verticalLabelPosition=bottom;verticalAlign=top;align=center;html=1;shape=mxgraph.aws3.ecs;fillColor=#F58534;gradientColor=none;" vertex="1" parent="GsFr_UHoiSiV_E2Ub8C0-13">
          <mxGeometry x="840" y="81.25" width="72" height="67.5" as="geometry" />
        </mxCell>
        <mxCell id="GsFr_UHoiSiV_E2Ub8C0-27" value="" style="outlineConnect=0;dashed=0;verticalLabelPosition=bottom;verticalAlign=top;align=center;html=1;shape=mxgraph.aws3.ecs;fillColor=#F58534;gradientColor=none;" vertex="1" parent="GsFr_UHoiSiV_E2Ub8C0-13">
          <mxGeometry x="270" y="92.75" width="72" height="67.5" as="geometry" />
        </mxCell>
        <mxCell id="GsFr_UHoiSiV_E2Ub8C0-26" value="" style="sketch=0;points=[[0,0,0],[0.25,0,0],[0.5,0,0],[0.75,0,0],[1,0,0],[0,1,0],[0.25,1,0],[0.5,1,0],[0.75,1,0],[1,1,0],[0,0.25,0],[0,0.5,0],[0,0.75,0],[1,0.25,0],[1,0.5,0],[1,0.75,0]];outlineConnect=0;fontColor=#232F3E;gradientColor=#F78E04;gradientDirection=north;fillColor=#D05C17;strokeColor=#ffffff;dashed=0;verticalLabelPosition=bottom;verticalAlign=top;align=center;html=1;fontSize=12;fontStyle=0;aspect=fixed;shape=mxgraph.aws4.resourceIcon;resIcon=mxgraph.aws4.ecs_anywhere;" vertex="1" parent="GsFr_UHoiSiV_E2Ub8C0-13">
          <mxGeometry x="90.63" y="74.5" width="88.75" height="88.75" as="geometry" />
        </mxCell>
        <mxCell id="GsFr_UHoiSiV_E2Ub8C0-38" value="API ALB" style="text;html=1;align=center;verticalAlign=middle;resizable=0;points=[];autosize=1;strokeColor=none;fillColor=none;fontSize=24;" vertex="1" parent="GsFr_UHoiSiV_E2Ub8C0-13">
          <mxGeometry x="475" y="155.25" width="110" height="40" as="geometry" />
        </mxCell>
        <mxCell id="GsFr_UHoiSiV_E2Ub8C0-39" value="web ECS" style="text;html=1;align=center;verticalAlign=middle;resizable=0;points=[];autosize=1;strokeColor=none;fillColor=none;fontSize=21;" vertex="1" parent="GsFr_UHoiSiV_E2Ub8C0-13">
          <mxGeometry x="80" y="163.25" width="110" height="40" as="geometry" />
        </mxCell>
        <mxCell id="GsFr_UHoiSiV_E2Ub8C0-40" value="ECS task" style="text;html=1;align=center;verticalAlign=middle;resizable=0;points=[];autosize=1;strokeColor=none;fillColor=none;fontSize=18;" vertex="1" parent="GsFr_UHoiSiV_E2Ub8C0-13">
          <mxGeometry x="245" y="165.25" width="100" height="40" as="geometry" />
        </mxCell>
        <mxCell id="GsFr_UHoiSiV_E2Ub8C0-42" value="ECS task" style="text;html=1;align=center;verticalAlign=middle;resizable=0;points=[];autosize=1;strokeColor=none;fillColor=none;fontSize=18;" vertex="1" parent="GsFr_UHoiSiV_E2Ub8C0-13">
          <mxGeometry x="830" y="155.25" width="100" height="40" as="geometry" />
        </mxCell>
        <mxCell id="GsFr_UHoiSiV_E2Ub8C0-43" value="API ECS" style="text;html=1;align=center;verticalAlign=middle;resizable=0;points=[];autosize=1;strokeColor=none;fillColor=none;fontSize=21;" vertex="1" parent="GsFr_UHoiSiV_E2Ub8C0-13">
          <mxGeometry x="680" y="163.25" width="110" height="40" as="geometry" />
        </mxCell>
        <mxCell id="GsFr_UHoiSiV_E2Ub8C0-55" value="application back end" style="text;html=1;align=center;verticalAlign=middle;resizable=0;points=[];autosize=1;strokeColor=none;fillColor=none;fontSize=18;" vertex="1" parent="GsFr_UHoiSiV_E2Ub8C0-13">
          <mxGeometry x="79" y="240" width="190" height="40" as="geometry" />
        </mxCell>
        <mxCell id="GsFr_UHoiSiV_E2Ub8C0-16" value="&lt;font style=&quot;font-size: 21px;&quot;&gt;Database subnet&lt;/font&gt;" style="points=[[0,0],[0.25,0],[0.5,0],[0.75,0],[1,0],[1,0.25],[1,0.5],[1,0.75],[1,1],[0.75,1],[0.5,1],[0.25,1],[0,1],[0,0.75],[0,0.5],[0,0.25]];outlineConnect=0;gradientColor=none;html=1;whiteSpace=wrap;fontSize=12;fontStyle=0;container=1;pointerEvents=0;collapsible=0;recursiveResize=0;shape=mxgraph.aws4.group;grIcon=mxgraph.aws4.group_security_group;grStroke=0;strokeColor=#147EBA;fillColor=#E6F2F8;verticalAlign=top;align=left;spacingLeft=30;fontColor=#147EBA;dashed=0;" vertex="1" parent="1">
          <mxGeometry x="450" y="830" width="1140" height="220" as="geometry" />
        </mxCell>
        <mxCell id="GsFr_UHoiSiV_E2Ub8C0-25" value="" style="sketch=0;points=[[0,0,0],[0.25,0,0],[0.5,0,0],[0.75,0,0],[1,0,0],[0,1,0],[0.25,1,0],[0.5,1,0],[0.75,1,0],[1,1,0],[0,0.25,0],[0,0.5,0],[0,0.75,0],[1,0.25,0],[1,0.5,0],[1,0.75,0]];outlineConnect=0;fontColor=#232F3E;gradientColor=#4D72F3;gradientDirection=north;fillColor=#3334B9;strokeColor=#ffffff;dashed=0;verticalLabelPosition=bottom;verticalAlign=top;align=center;html=1;fontSize=12;fontStyle=0;aspect=fixed;shape=mxgraph.aws4.resourceIcon;resIcon=mxgraph.aws4.rds;direction=north;" vertex="1" parent="GsFr_UHoiSiV_E2Ub8C0-16">
          <mxGeometry x="501" y="50" width="78" height="78" as="geometry" />
        </mxCell>
        <mxCell id="GsFr_UHoiSiV_E2Ub8C0-41" value="RDS" style="text;html=1;align=center;verticalAlign=middle;resizable=0;points=[];autosize=1;strokeColor=none;fillColor=none;fontSize=18;" vertex="1" parent="GsFr_UHoiSiV_E2Ub8C0-16">
          <mxGeometry x="527" y="80" width="60" height="40" as="geometry" />
        </mxCell>
        <mxCell id="GsFr_UHoiSiV_E2Ub8C0-46" value="RDS" style="text;html=1;align=center;verticalAlign=middle;resizable=0;points=[];autosize=1;strokeColor=none;fillColor=none;fontSize=18;" vertex="1" parent="GsFr_UHoiSiV_E2Ub8C0-16">
          <mxGeometry x="521" y="160" width="60" height="40" as="geometry" />
        </mxCell>
        <mxCell id="GsFr_UHoiSiV_E2Ub8C0-52" value="dataabase route table" style="text;html=1;align=center;verticalAlign=middle;resizable=0;points=[];autosize=1;strokeColor=none;fillColor=none;fontSize=24;" vertex="1" parent="GsFr_UHoiSiV_E2Ub8C0-16">
          <mxGeometry x="880" y="69" width="260" height="40" as="geometry" />
        </mxCell>
        <mxCell id="GsFr_UHoiSiV_E2Ub8C0-30" value="" style="sketch=0;outlineConnect=0;fontColor=#232F3E;gradientColor=none;fillColor=#4D27AA;strokeColor=none;dashed=0;verticalLabelPosition=bottom;verticalAlign=top;align=center;html=1;fontSize=12;fontStyle=0;aspect=fixed;pointerEvents=1;shape=mxgraph.aws4.route_table;" vertex="1" parent="GsFr_UHoiSiV_E2Ub8C0-16">
          <mxGeometry x="1030" y="-10" width="87.74" height="85.49" as="geometry" />
        </mxCell>
        <mxCell id="GsFr_UHoiSiV_E2Ub8C0-54" value="application data base" style="text;html=1;align=center;verticalAlign=middle;resizable=0;points=[];autosize=1;strokeColor=none;fillColor=none;fontSize=18;" vertex="1" parent="GsFr_UHoiSiV_E2Ub8C0-16">
          <mxGeometry x="105" y="128" width="190" height="40" as="geometry" />
        </mxCell>
        <mxCell id="GsFr_UHoiSiV_E2Ub8C0-22" value="" style="sketch=0;outlineConnect=0;fontColor=#232F3E;gradientColor=none;fillColor=#4D27AA;strokeColor=none;dashed=0;verticalLabelPosition=bottom;verticalAlign=top;align=center;html=1;fontSize=12;fontStyle=0;aspect=fixed;pointerEvents=1;shape=mxgraph.aws4.application_load_balancer;" vertex="1" parent="1">
          <mxGeometry x="960" y="549.75" width="78" height="78" as="geometry" />
        </mxCell>
        <mxCell id="GsFr_UHoiSiV_E2Ub8C0-23" value="" style="sketch=0;outlineConnect=0;fontColor=#232F3E;gradientColor=none;fillColor=#4D27AA;strokeColor=none;dashed=0;verticalLabelPosition=bottom;verticalAlign=top;align=center;html=1;fontSize=12;fontStyle=0;aspect=fixed;pointerEvents=1;shape=mxgraph.aws4.route_table;" vertex="1" parent="1">
          <mxGeometry x="1470" y="287" width="78" height="76" as="geometry" />
        </mxCell>
        <mxCell id="GsFr_UHoiSiV_E2Ub8C0-24" value="" style="sketch=0;outlineConnect=0;fontColor=#232F3E;gradientColor=none;fillColor=#4D27AA;strokeColor=none;dashed=0;verticalLabelPosition=bottom;verticalAlign=top;align=center;html=1;fontSize=12;fontStyle=0;aspect=fixed;pointerEvents=1;shape=mxgraph.aws4.route_table;" vertex="1" parent="1">
          <mxGeometry x="1460" y="473.75" width="78" height="76" as="geometry" />
        </mxCell>
        <mxCell id="GsFr_UHoiSiV_E2Ub8C0-28" value="" style="sketch=0;points=[[0,0,0],[0.25,0,0],[0.5,0,0],[0.75,0,0],[1,0,0],[0,1,0],[0.25,1,0],[0.5,1,0],[0.75,1,0],[1,1,0],[0,0.25,0],[0,0.5,0],[0,0.75,0],[1,0.25,0],[1,0.5,0],[1,0.75,0]];outlineConnect=0;fontColor=#232F3E;gradientColor=#F78E04;gradientDirection=north;fillColor=#D05C17;strokeColor=#ffffff;dashed=0;verticalLabelPosition=bottom;verticalAlign=top;align=center;html=1;fontSize=12;fontStyle=0;aspect=fixed;shape=mxgraph.aws4.resourceIcon;resIcon=mxgraph.aws4.ecs_anywhere;" vertex="1" parent="1">
          <mxGeometry x="1160" y="549.75" width="78" height="78" as="geometry" />
        </mxCell>
        <mxCell id="GsFr_UHoiSiV_E2Ub8C0-36" value="Text" style="text;html=1;strokeColor=none;fillColor=none;align=center;verticalAlign=middle;whiteSpace=wrap;rounded=0;" vertex="1" parent="1">
          <mxGeometry x="960" y="380" width="60" height="30" as="geometry" />
        </mxCell>
        <mxCell id="GsFr_UHoiSiV_E2Ub8C0-37" value="WEB ALB" style="text;html=1;align=center;verticalAlign=middle;resizable=0;points=[];autosize=1;strokeColor=none;fillColor=none;fontSize=26;" vertex="1" parent="1">
          <mxGeometry x="920" y="375" width="140" height="40" as="geometry" />
        </mxCell>
        <mxCell id="GsFr_UHoiSiV_E2Ub8C0-50" value="public route table" style="text;html=1;align=center;verticalAlign=middle;resizable=0;points=[];autosize=1;strokeColor=none;fillColor=none;fontSize=24;" vertex="1" parent="1">
          <mxGeometry x="1400" y="360" width="210" height="40" as="geometry" />
        </mxCell>
        <mxCell id="GsFr_UHoiSiV_E2Ub8C0-51" value="private route table" style="text;html=1;align=center;verticalAlign=middle;resizable=0;points=[];autosize=1;strokeColor=none;fillColor=none;fontSize=24;" vertex="1" parent="1">
          <mxGeometry x="1409" y="549.75" width="220" height="40" as="geometry" />
        </mxCell>
        <mxCell id="GsFr_UHoiSiV_E2Ub8C0-53" value="" style="outlineConnect=0;dashed=0;verticalLabelPosition=bottom;verticalAlign=top;align=center;html=1;shape=mxgraph.aws3.virtual_private_cloud;fillColor=#F58534;gradientColor=none;" vertex="1" parent="1">
          <mxGeometry x="250" y="139" width="150" height="130" as="geometry" />
        </mxCell>
        <mxCell id="GsFr_UHoiSiV_E2Ub8C0-56" value="application front&amp;nbsp; end" style="text;html=1;align=center;verticalAlign=middle;resizable=0;points=[];autosize=1;strokeColor=none;fillColor=none;fontSize=18;" vertex="1" parent="1">
          <mxGeometry x="520" y="380" width="190" height="40" as="geometry" />
        </mxCell>
        <mxCell id="GsFr_UHoiSiV_E2Ub8C0-57" value="&lt;font style=&quot;font-size: 21px;&quot;&gt;ECS cluster&lt;/font&gt;" style="fillColor=none;strokeColor=#147EBA;dashed=1;verticalAlign=top;fontStyle=0;fontColor=#147EBA;whiteSpace=wrap;html=1;" vertex="1" parent="1">
          <mxGeometry x="500" y="510" width="980" height="250" as="geometry" />
        </mxCell>
        <mxCell id="GsFr_UHoiSiV_E2Ub8C0-61" value="" style="edgeStyle=orthogonalEdgeStyle;rounded=0;orthogonalLoop=1;jettySize=auto;html=1;" edge="1" parent="1">
          <mxGeometry relative="1" as="geometry">
            <mxPoint x="280" y="700" as="sourcePoint" />
            <mxPoint x="280" y="780" as="targetPoint" />
          </mxGeometry>
        </mxCell>
      </root>
    </mxGraphModel>
  </diagram>
</mxfile>
